<svg id="Capa_1" enable-background="new 0 0 512 512" height="512" viewBox="0 0 512 512" width="512" xmlns="http://www.w3.org/2000/svg"><g><g><g><g><g><g><g><g><g><g><g><g><g><g><g><g><g><g><g><g><path d="m104.082 335.858c5.032-.631 8.815-4.894 8.837-9.965l.194-46.132 70.485.297-.194 46.132c-.021 5.071 3.726 9.365 8.752 10.039 0 0 13.015 44.483-44.224 44.241-57.24-.241-43.85-44.612-43.85-44.612z" fill="#ffece3"/><path d="m126.33 306.004c7.368-2.999 13.619-7.12 18.796-11.54 12.602-10.758 19.619-26.648 20.044-43.186l.116-74.233.052-36.883c-5.012-1.366-10.468-2.194-16.384-2.285-18.643.129-32.787 7.615-42.862 16.217-12.852 10.972-19.858 27.317-19.929 44.215l-.05 11.968-.021 5.007-4.264-.018c-6.251-.026-11.339 5.019-11.366 11.27l-.053 12.542c-.026 6.251 5.02 11.339 11.27 11.366l4.281.018c.283 16.428 7.119 32.267 19.544 43.057 5.851 5.081 13.098 9.793 21.837 12.885-.339-.13-.677-.264-1.011-.4z" fill="#ffece3"/><path d="m215.426 215.829-4.264-.018.021-5.007.05-11.968c.071-16.898-6.797-33.302-19.556-44.382-7.244-6.291-16.639-11.999-28.344-14.786l-.173 111.322c-.422 16.425-7.391 32.206-19.907 42.891-5.142 4.39-11.35 8.482-18.668 11.461 6.878 2.799 14.734 4.62 23.643 4.757 18.642-.129 32.786-7.615 42.862-16.217 12.516-10.685 19.485-26.466 19.907-42.891l4.281.018c6.251.026 11.339-5.02 11.366-11.27l.053-12.542c.026-6.253-5.02-11.341-11.271-11.368z" fill="#ffddce"/><path d="m221.616 417.139c.085-20.202-11.728-38.561-30.148-46.856-9.575-4.312-24.027-7.775-37.576-10.345l-5.889 3.649-43.921-27.729c-15.008 1.883-45.498 6.382-61.647 13.49-17.739 7.809-29.22 25.326-29.302 44.707l-.337 81.035h208.575z" fill="#ddeafb"/><g><path d="m253.687 350.239c-12.525-5.64-33.754-9.771-49.618-12.273-7.584-1.196-15.343.389-21.869 4.432l-30.615 18.969c13.674 2.506 28.717 5.982 38.477 10.378 17.672 7.958 29.005 25.572 28.924 44.953l-.246 58.393h63.535l.337-79.899c.08-19.382-11.253-36.996-28.925-44.953z" fill="#bed8fb"/></g></g></g></g></g></g></g><path d="m147.055 178.989 3.453.014c5.019.021 9.976-.851 14.779-2.302l.057-40.614c.001-1.031-.832-1.869-1.863-1.874l-38.865-.164c-26.324-.111-47.754 21.139-47.865 47.463l-.148 35.006s8.457-.156 14.556 4.904c.777.645 1.77.972 2.779.916l6.653-.369c2.131-.118 3.8-1.876 3.809-4.01l.104-25.31c.042-9.859 8.067-17.817 17.926-17.776l.215.001c3.014.013 5.992.5 8.832 1.427 5.044 1.647 10.271 2.666 15.578 2.688z" fill="#aa8080"/><path d="m200.195 153.132c-3.231-.014-6.051-2.096-7.123-5.144-2.801-7.967-10.372-13.694-19.3-13.731l-10.429-.044-.068 43.051c.949-.252 1.895-.519 2.833-.817 2.848-.903 5.829-1.365 8.843-1.352l.215.001c9.859.042 17.817 8.067 17.776 17.926l-.12 28.394c-.008 1.815 2.172 2.723 3.47 1.454 6.173-6.037 24.348-5.744 24.348-5.744l.182-43.193c.048-11.44-9.187-20.753-20.627-20.801z" fill="#9d6b6b"/></g><path d="m222.599 341.29-29.641 38.196c-5.267 6.787-15.067 7.955-21.781 2.596l-23.175-18.496 44.153-27.357c7.516 1.008 18.916 2.705 30.444 5.061 0-.001 0 0 0 0z" fill="#bed8fb"/><path d="m73.597 340.661 29.372 38.498c5.219 6.841 15.029 8.081 21.786 2.754l23.248-18.327-43.921-27.729c-7.524.945-18.938 2.547-30.485 4.804z" fill="#bed8fb"/><path d="m148.003 363.586 22.143 17.673-11.955 17.673-20.605-.087-12.002-17.586z" fill="#fb636f"/></g><path d="m125.782 475.091 11.768-76.246 20.604.086 11.099 76.16z" fill="#fc8086"/></g></g><g><g><path d="m56.81 481.867c-.011 0-.022 0-.033 0-4.267-.018-7.712-3.492-7.694-7.759l.153-36.332c.018-4.257 3.474-7.694 7.726-7.694h.033c4.267.018 7.712 3.492 7.694 7.759l-.153 36.332c-.018 4.257-3.474 7.694-7.726 7.694z" fill="#bed8fb"/></g></g></g></g></g></g><g><path d="m437.566 394.713v-119.577c0-7.478-6.06-13.541-13.537-13.547h-154.843c-7.482 0-13.547 6.065-13.547 13.547v119.577c0 7.482 6.065 13.547 13.547 13.547h154.843c7.477-.006 13.537-6.069 13.537-13.547z" fill="#f6f9f9"/><path d="m485.258 261.589h-63.299c7.482 0 13.547 6.065 13.547 13.547v119.577c0 7.482-6.065 13.547-13.547 13.547h63.299c7.482 0 13.547-6.065 13.547-13.547v-119.577c0-7.482-6.065-13.547-13.547-13.547z" fill="#e7ecf1"/><path d="m352.853 490.995h48.739l-9.406-92.358c-.407-3.996-3.772-7.036-7.789-7.036h-14.348c-4.017 0-7.382 3.04-7.789 7.036z" fill="#e7ecf1"/><path d="m333.831 490.995h86.781v-35.66c0-5.275-4.276-9.551-9.551-9.551h-67.679c-5.275 0-9.551 4.276-9.551 9.551z" fill="#f6f9f9"/></g></g><path d="m448.994 505.119v-25.814c0-3.8-3.081-6.881-6.881-6.881h-435.022c-3.8 0-6.881 3.08-6.881 6.881v25.814c0 3.8 3.081 6.881 6.881 6.881h435.022c3.8 0 6.881-3.081 6.881-6.881z" fill="#aa8080"/><path d="m504.511 472.425h-63.299c3.8 0 6.881 3.08 6.881 6.881v25.814c0 3.8-3.081 6.881-6.881 6.881h63.299c3.8 0 6.881-3.081 6.881-6.881v-25.814c0-3.801-3.081-6.881-6.881-6.881z" fill="#9d6b6b"/></g><circle cx="377.222" cy="326.06" fill="#7c8b96" r="21.49"/></g></g></g><g><g><path d="m450.587 90.384c0-38.189-23.188-70.958-56.25-85.008-1.088-.462-2.32-.498-3.433-.099-34.909 12.513-59.882 45.894-59.882 85.107 0 39.214 24.973 72.594 59.882 85.107 1.113.399 2.345.363 3.433-.099 33.062-14.05 56.25-46.819 56.25-85.008z" fill="#f6e266"/><path d="m421.406 0c-11.144 0-21.815 2.022-31.671 5.711 34.295 12.834 58.712 45.9 58.712 84.673 0 38.774-24.417 71.84-58.712 84.674 9.857 3.689 20.527 5.71 31.671 5.71 49.918 0 90.384-40.466 90.384-90.384s-40.466-90.384-90.384-90.384z" fill="#ffd064"/><g><circle cx="421.406" cy="90.384" fill="#f5f5f5" r="63.343"/></g><g><path d="m424.156 98.11c-5.778 0-10.476-4.698-10.476-10.473v-34.027c0-4.268 3.459-7.726 7.726-7.726s7.726 3.459 7.726 7.726v29.045l13.528-.005h.003c4.266 0 7.725 3.457 7.726 7.723.001 4.268-3.456 7.727-7.723 7.729z" fill="#8c9ba6"/></g></g></g></g></svg>